<svg xmlns="http://www.w3.org/2000/svg" width="48" height="48" fill="none" viewBox="0 0 48 48" role="img">
  <g class="uib/now-record-common-attachments-connected">
    <path class="--now-color_background--primary" fill="#fff" fill-rule="evenodd" d="M8 5h26a3 3 0 0 1 3 3v13.122c-.406.263-.79.573-1.146.928l-.009.009-10.4 10.572A9.004 9.004 0 0 0 23.76 43H8a3 3 0 0 1-3-3V8a3 3 0 0 1 3-3Z" clip-rule="evenodd"></path>
    <path class="--now-color_interactive-0" fill="#D0D9FA" d="M31 10H11a1 1 0 0 0-1 1v11a1 1 0 0 0 1 1h20a1 1 0 0 0 1-1V11a1 1 0 0 0-1-1Z"></path>
    <path class="--now-color_interactive-3" fill="#314699" fill-rule="evenodd" d="M9 11a2 2 0 0 1 2-2h20a2 2 0 0 1 2 2v11a2 2 0 0 1-2 2H11a2 2 0 0 1-2-2V11Zm22 0H11v11h20V11Z" clip-rule="evenodd"></path>
    <path class="--now-color_divider--primary" fill="#849196" fill-rule="evenodd" d="M27.049 31H11a1 1 0 1 0 0 2h14.096a9.21 9.21 0 0 1 .349-.37L27.049 31ZM13 28a1 1 0 0 1 1-1h14a1 1 0 1 1 0 2H14a1 1 0 0 1-1-1Z" clip-rule="evenodd"></path>
    <path class="--now-color_text--tertiary" fill="#36444B" fill-rule="evenodd" d="M4 8a4 4 0 0 1 4-4h26a4 4 0 0 1 4 4v12.584a6.973 6.973 0 0 0-2 1.324V8a2 2 0 0 0-2-2H8a2 2 0 0 0-2 2v32a2 2 0 0 0 2 2h15.336c.247.697.583 1.37 1.007 2H8a4 4 0 0 1-4-4V8Zm19.746 27a8.956 8.956 0 0 0-.707 2H18a1 1 0 1 1 0-2h5.746Z" clip-rule="evenodd"></path>
    <path class="--now-color_interactive-3" fill="#314699" fill-rule="evenodd" d="M38.685 24.876 28.283 35.45a5 5 0 0 0 7.07 7.07l7.243-7.242a1 1 0 0 1 1.415 1.415l-7.243 7.242a7 7 0 0 1-9.902-9.897l10.402-10.573a5 5 0 0 1 7.074 7.068L33.94 41.106a3 3 0 0 1-4.243-4.242l8.571-8.571a1 1 0 1 1 1.414 1.414l-8.57 8.571a1 1 0 0 0 1.411 1.417L42.925 29.12a3 3 0 0 0-4.24-4.245Z" clip-rule="evenodd"></path>
  </g>
<title>tile-uib-now-record-common-attachments-connected-1-sm</title></svg>